<svg width="15" height="6" viewBox="0 0 15 6" fill="none" xmlns="http://www.w3.org/2000/svg">
<path d="M14.098 1.92105H3.07586V0.383003C3.07586 0.313592 3.05047 0.253523 2.99977 0.202797C2.94902 0.152044 2.88892 0.126709 2.81954 0.126709C2.74471 0.126709 2.68336 0.150725 2.6353 0.198757L0.0720484 2.7619C0.0241003 2.8101 0 2.87137 0 2.94628C0 3.01561 0.0239881 3.07444 0.0720484 3.12234L2.62733 5.6857C2.69144 5.73906 2.75552 5.76569 2.81962 5.76569C2.88901 5.76569 2.9491 5.74035 2.99983 5.68974C3.05053 5.63888 3.07592 5.57895 3.07592 5.50942V3.97149H14.098C14.1675 3.97149 14.2274 3.94627 14.2783 3.89546C14.329 3.84465 14.3542 3.78466 14.3542 3.71514V2.1772C14.3542 2.10776 14.3289 2.04778 14.2783 1.99708C14.2274 1.94638 14.1675 1.92105 14.098 1.92105Z" fill="url(#paint0_linear)"/>
<defs>
<linearGradient id="paint0_linear" x1="7.89484" y1="-0.760908" x2="8.01992" y2="9.23699" gradientUnits="userSpaceOnUse">
<stop stop-color="#FD749B"/>
<stop offset="1" stop-color="#281AC8"/>
</linearGradient>
</defs>
</svg>
